<?xml version="1.0" encoding="iso-8859-1"?>
<!-- Generator: Adobe Illustrator 19.0.0, SVG Export Plug-In . SVG Version: 6.00 Build 0)  -->
<svg version="1.1" id="Layer_1" xmlns="http://www.w3.org/2000/svg" xmlns:xlink="http://www.w3.org/1999/xlink" x="0px" y="0px"
	 viewBox="0 0 512 512" style="enable-background:new 0 0 512 512;fill:#CADEFD" xml:space="preserve">
<circle style="fill:#084298;" cx="256" cy="256" r="256"/>
<g>
	<rect x="113.424" y="376.08" style="fill:#CCCBCA;" width="285.144" height="8"/>
	<rect x="157.296" y="400.08" style="fill:#CCCBCA;" width="197.408" height="8"/>
</g>
<g>
	<path style="fill:##CADEFD;" d="M97.576,274.304h15.456V183.36l-16.544,14.6l-8.744-10.224l30.288-31.536h15.064l-0.08,0.16
		l0.08-0.08v118.032h15.384v15.224H97.584v-15.232H97.576z"/>
	<path style="fill:#CADEFD;" d="M158.704,194.288c0-5.832,0.528-10.856,1.6-15.104s2.472-7.816,4.216-10.696
		c1.744-2.888,3.76-5.216,6.048-6.992c2.288-1.768,4.648-3.136,7.064-4.096c2.424-0.968,4.84-1.6,7.264-1.912
		c2.416-0.312,4.64-0.472,6.672-0.472c1.92,0,4.072,0.144,6.44,0.432c2.376,0.28,4.768,0.88,7.184,1.8
		c2.424,0.904,4.76,2.232,7.024,3.976s4.264,4.08,6.016,6.992c1.744,2.912,3.152,6.496,4.208,10.776
		c1.072,4.264,1.6,9.368,1.6,15.296v56.368c0,5.832-0.528,10.856-1.6,15.104c-1.064,4.24-2.488,7.848-4.248,10.816
		c-1.776,2.968-3.808,5.376-6.096,7.224c-2.288,1.84-4.632,3.272-7.024,4.288c-2.4,1.016-4.776,1.704-7.152,2.072
		c-2.368,0.36-4.488,0.544-6.36,0.544c-2.08,0-4.344-0.184-6.792-0.544c-2.448-0.368-4.896-1.056-7.344-2.072
		s-4.8-2.432-7.064-4.248c-2.264-1.832-4.248-4.216-5.968-7.184c-1.72-2.96-3.104-6.576-4.144-10.848
		c-1.04-4.264-1.56-9.312-1.56-15.144v-56.376H158.704z M179.392,259.168c0,5.512,1,9.52,3.008,12.024
		c2,2.496,5.064,3.744,9.168,3.744c4.008,0,7-1.24,8.976-3.744s2.968-6.504,2.968-12.024V186.96c0-5.832-0.992-10.072-2.968-12.728
		s-4.968-3.984-8.976-3.984c-4.112,0-7.168,1.328-9.168,3.984c-2.008,2.656-3.008,6.896-3.008,12.728V259.168z"/>
	<path style="fill:#CADEFD;" d="M240.44,194.288c0-5.832,0.528-10.856,1.6-15.104s2.472-7.816,4.216-10.696
		c1.744-2.888,3.76-5.216,6.048-6.992c2.288-1.768,4.648-3.136,7.064-4.096c2.424-0.968,4.84-1.6,7.264-1.912
		c2.416-0.312,4.64-0.472,6.672-0.472c1.92,0,4.072,0.144,6.44,0.432c2.376,0.28,4.768,0.88,7.184,1.8
		c2.424,0.904,4.76,2.232,7.024,3.976s4.264,4.08,6.016,6.992c1.744,2.912,3.152,6.496,4.208,10.776
		c1.072,4.264,1.6,9.368,1.6,15.296v56.368c0,5.832-0.528,10.856-1.6,15.104c-1.064,4.24-2.488,7.848-4.248,10.816
		c-1.776,2.968-3.808,5.376-6.096,7.224c-2.288,1.84-4.632,3.272-7.024,4.288c-2.4,1.016-4.776,1.704-7.152,2.072
		c-2.368,0.36-4.488,0.544-6.36,0.544c-2.08,0-4.344-0.184-6.792-0.544c-2.448-0.368-4.896-1.056-7.344-2.072
		s-4.8-2.432-7.064-4.248c-2.264-1.832-4.248-4.216-5.968-7.184c-1.72-2.96-3.104-6.576-4.144-10.848
		c-1.04-4.264-1.56-9.312-1.56-15.144v-56.376H240.44z M261.128,259.168c0,5.512,1,9.52,3.008,12.024
		c2,2.496,5.064,3.744,9.168,3.744c4.008,0,7-1.24,8.976-3.744s2.968-6.504,2.968-12.024V186.96c0-5.832-0.992-10.072-2.968-12.728
		s-4.968-3.984-8.976-3.984c-4.112,0-7.168,1.328-9.168,3.984c-2.008,2.656-3.008,6.896-3.008,12.728V259.168z"/>
	<path style="fill:#CADEFD;" d="M342.512,213.64c-2.264,0-4.536-0.312-6.824-0.952c-2.28-0.632-4.352-1.872-6.192-3.72
		c-1.848-1.848-3.352-4.472-4.496-7.864c-1.16-3.4-1.728-7.856-1.728-13.376v-6.376c0-3.616,0.272-6.744,0.832-9.392
		c0.552-2.64,1.32-4.888,2.288-6.76c0.976-1.864,2.096-3.376,3.368-4.528s2.624-2.048,4.056-2.68s2.888-1.072,4.376-1.312
		c1.496-0.232,2.952-0.36,4.384-0.36c1.352,0,2.76,0.112,4.224,0.328s2.912,0.648,4.32,1.28c1.416,0.64,2.752,1.52,4.024,2.656
		c1.272,1.128,2.384,2.624,3.336,4.496s1.712,4.136,2.264,6.8s0.832,5.824,0.832,9.48v6.376c0,5.44-0.616,9.856-1.848,13.256
		c-1.224,3.392-2.792,6.024-4.672,7.888c-1.888,1.864-3.952,3.136-6.192,3.784C346.616,213.312,344.496,213.64,342.512,213.64z
		 M342.64,204.176c2.496,0,4.248-1.088,5.24-3.248s1.488-5.528,1.488-10.104v-11.552c0-4.608-0.496-8.008-1.488-10.192
		c-0.992-2.176-2.744-3.272-5.24-3.272c-2.624,0-4.464,1.096-5.512,3.272c-1.056,2.184-1.576,5.584-1.576,10.192v11.552
		c0,4.568,0.52,7.936,1.576,10.104S340.016,204.176,342.64,204.176z M378.624,157.576h10.792L362.064,260.48h-10.84L378.624,157.576
		z M378.744,229.08c0-5.448,0.608-9.808,1.824-13.08c1.208-3.28,2.76-5.808,4.648-7.568c1.88-1.768,3.96-2.936,6.224-3.512
		s4.448-0.864,6.552-0.864c1.352,0,2.76,0.112,4.224,0.328s2.912,0.648,4.32,1.28c1.416,0.64,2.752,1.52,4.024,2.656
		s2.384,2.632,3.336,4.496s1.712,4.128,2.264,6.792s0.832,5.824,0.832,9.48v6.376c0,3.656-0.288,6.832-0.864,9.528
		s-1.352,5.008-2.32,6.912c-0.976,1.904-2.096,3.48-3.368,4.704c-1.272,1.232-2.616,2.2-4.024,2.92
		c-1.408,0.712-2.848,1.2-4.32,1.464s-2.856,0.384-4.168,0.384c-1.504,0-3.032-0.128-4.552-0.384c-1.528-0.256-3-0.728-4.416-1.4
		c-1.408-0.68-2.736-1.632-3.992-2.856c-1.248-1.232-2.328-2.808-3.24-4.712s-1.64-4.216-2.176-6.944
		c-0.528-2.72-0.808-5.92-0.808-9.616V229.08z M390.96,238.552c0,4.568,0.52,7.936,1.576,10.104s2.888,3.248,5.504,3.248
		c2.504,0,4.248-1.088,5.248-3.248c0.992-2.168,1.488-5.528,1.488-10.104V227c0-4.608-0.496-8.008-1.488-10.184
		c-1-2.184-2.744-3.28-5.248-3.28c-2.616,0-4.456,1.096-5.504,3.28c-1.056,2.176-1.576,5.576-1.576,10.184V238.552z"/>
</g>
<g>
</g>
<g>
</g>
<g>
</g>
<g>
</g>
<g>
</g>
<g>
</g>
<g>
</g>
<g>
</g>
<g>
</g>
<g>
</g>
<g>
</g>
<g>
</g>
<g>
</g>
<g>
</g>
<g>
</g>
</svg>
