<?xml version="1.0" encoding="iso-8859-1"?>
<!-- Generator: Adobe Illustrator 19.0.0, SVG Export Plug-In . SVG Version: 6.00 Build 0)  -->
<svg version="1.1" id="Capa_1" xmlns="http://www.w3.org/2000/svg" xmlns:xlink="http://www.w3.org/1999/xlink" x="0px" y="0px"
	 viewBox="0 0 490.667 490.667" style="enable-background:new 0 0 490.667 490.667;fill:#084298" xml:space="preserve">
<g>
	<g>
		<path d="M245.333,0C132.885,0,38.101,76.139,9.237,179.499c-0.192,0.448-0.512,0.789-0.64,1.259
			c-0.149,0.576-0.064,1.109-0.107,1.664C3.136,202.539,0,223.552,0,245.333c0,135.275,110.059,245.333,245.333,245.333
			s245.333-110.059,245.333-245.333S380.608,0,245.333,0z M32.363,176.213C60.523,89.685,139.968,26.368,234.667,21.867V107.2
			c-55.403,4.245-101.696,41.152-119.765,91.499L32.363,176.213z M245.333,362.667C180.629,362.667,128,310.016,128,245.333
			C128,180.651,180.629,128,245.333,128s117.333,52.651,117.333,117.333C362.667,310.016,310.037,362.667,245.333,362.667z"/>
	</g>
</g>
<g>
</g>
<g>
</g>
<g>
</g>
<g>
</g>
<g>
</g>
<g>
</g>
<g>
</g>
<g>
</g>
<g>
</g>
<g>
</g>
<g>
</g>
<g>
</g>
<g>
</g>
<g>
</g>
<g>
</g>
</svg>
