<svg width="297" height="254" viewBox="0 0 297 254" fill="none" xmlns="http://www.w3.org/2000/svg">
<g id="Group 1">
<rect id="Rectangle 1" x="5" y="5" width="287" height="244" rx="46" fill="#0D6EFD" stroke="white" stroke-width="10"/>
<g id="S D" filter="url(#filter0_bd)">
<path d="M47.7842 148.875C70.6175 150.125 86.0758 150.75 94.1592 150.75C96.0758 150.75 97.5758 150.208 98.6592 149.125C99.8258 147.958 100.409 146.417 100.409 144.5V133.25H71.6592C62.9092 133.25 56.5342 131.292 52.5342 127.375C48.6175 123.375 46.6592 117 46.6592 108.25V104.5C46.6592 95.75 48.6175 89.4167 52.5342 85.5C56.5342 81.5 62.9092 79.5 71.6592 79.5H115.534V97H76.6592C71.6592 97 69.1592 99.5 69.1592 104.5V107C69.1592 112 71.6592 114.5 76.6592 114.5H99.1592C107.326 114.5 113.326 116.417 117.159 120.25C120.993 124.083 122.909 130.083 122.909 138.25V144.5C122.909 152.667 120.993 158.667 117.159 162.5C113.326 166.333 107.326 168.25 99.1592 168.25C94.9092 168.25 90.4092 168.167 85.6592 168L74.1592 167.5C65.6592 167.083 56.8675 166.5 47.7842 165.75V148.875ZM220.375 79.5C229.792 79.5 236.917 81.9583 241.75 86.875C246.667 91.7083 249.125 98.8333 249.125 108.25V138.25C249.125 147.667 246.667 154.833 241.75 159.75C236.917 164.583 229.792 167 220.375 167H171.625V79.5H220.375ZM226.625 108.25C226.625 100.75 222.875 97 215.375 97H194.125V149.5H215.375C222.875 149.5 226.625 145.75 226.625 138.25V108.25Z" fill="white"/>
<path d="M47.7842 148.875L47.9208 146.379L45.2842 146.234V148.875H47.7842ZM98.6592 149.125L96.8914 147.357L96.8914 147.357L98.6592 149.125ZM100.409 133.25H102.909V130.75H100.409V133.25ZM52.5342 127.375L50.7479 129.124L50.7663 129.143L50.7851 129.161L52.5342 127.375ZM52.5342 85.5L54.3019 87.2678L54.3019 87.2678L52.5342 85.5ZM115.534 79.5H118.034V77H115.534V79.5ZM115.534 97V99.5H118.034V97H115.534ZM117.159 162.5L115.391 160.732L115.391 160.732L117.159 162.5ZM85.6592 168L85.5506 170.498L85.561 170.498L85.5715 170.498L85.6592 168ZM74.1592 167.5L74.0368 169.997L74.0506 169.998L74.1592 167.5ZM47.7842 165.75H45.2842V168.052L47.5785 168.242L47.7842 165.75ZM47.6475 151.371C70.4725 152.621 85.9971 153.25 94.1592 153.25V148.25C86.1546 148.25 70.7625 147.629 47.9208 146.379L47.6475 151.371ZM94.1592 153.25C96.5631 153.25 98.7636 152.556 100.427 150.893L96.8914 147.357C96.3881 147.861 95.5886 148.25 94.1592 148.25V153.25ZM100.427 150.893C102.139 149.181 102.909 146.964 102.909 144.5H97.9092C97.9092 145.87 97.5132 146.735 96.8914 147.357L100.427 150.893ZM102.909 144.5V133.25H97.9092V144.5H102.909ZM100.409 130.75H71.6592V135.75H100.409V130.75ZM71.6592 130.75C63.2065 130.75 57.6115 128.848 54.2832 125.589L50.7851 129.161C55.4568 133.736 62.6119 135.75 71.6592 135.75V130.75ZM54.3205 125.626C51.0615 122.298 49.1592 116.703 49.1592 108.25H44.1592C44.1592 117.297 46.1735 124.452 50.7479 129.124L54.3205 125.626ZM49.1592 108.25V104.5H44.1592V108.25H49.1592ZM49.1592 104.5C49.1592 96.0412 51.0641 90.5057 54.3019 87.2678L50.7664 83.7322C46.171 88.3277 44.1592 95.4588 44.1592 104.5H49.1592ZM54.3019 87.2678C57.6313 83.9384 63.2184 82 71.6592 82V77C62.6 77 55.437 79.0616 50.7664 83.7322L54.3019 87.2678ZM71.6592 82H115.534V77H71.6592V82ZM113.034 79.5V97H118.034V79.5H113.034ZM115.534 94.5H76.6592V99.5H115.534V94.5ZM76.6592 94.5C73.7738 94.5 71.1506 95.223 69.2664 97.1072C67.3822 98.9914 66.6592 101.615 66.6592 104.5H71.6592C71.6592 102.385 72.1861 101.259 72.8019 100.643C73.4177 100.027 74.5445 99.5 76.6592 99.5V94.5ZM66.6592 104.5V107H71.6592V104.5H66.6592ZM66.6592 107C66.6592 109.885 67.3822 112.509 69.2664 114.393C71.1506 116.277 73.7738 117 76.6592 117V112C74.5445 112 73.4177 111.473 72.8019 110.857C72.1861 110.241 71.6592 109.115 71.6592 107H66.6592ZM76.6592 117H99.1592V112H76.6592V117ZM99.1592 117C106.994 117 112.218 118.845 115.391 122.018L118.927 118.482C114.433 113.989 107.658 112 99.1592 112V117ZM115.391 122.018C118.565 125.191 120.409 130.415 120.409 138.25H125.409C125.409 129.752 123.42 122.976 118.927 118.482L115.391 122.018ZM120.409 138.25V144.5H125.409V138.25H120.409ZM120.409 144.5C120.409 152.335 118.565 157.559 115.391 160.732L118.927 164.268C123.42 159.774 125.409 152.998 125.409 144.5H120.409ZM115.391 160.732C112.218 163.905 106.994 165.75 99.1592 165.75V170.75C107.658 170.75 114.433 168.761 118.927 164.268L115.391 160.732ZM99.1592 165.75C94.9416 165.75 90.471 165.667 85.7468 165.502L85.5715 170.498C90.3474 170.666 94.8768 170.75 99.1592 170.75V165.75ZM85.7678 165.502L74.2678 165.002L74.0506 169.998L85.5506 170.498L85.7678 165.502ZM74.2816 165.003C65.8113 164.588 57.0474 164.006 47.9899 163.258L47.5785 168.242C56.6876 168.994 65.5071 169.579 74.0368 169.997L74.2816 165.003ZM50.2842 165.75V148.875H45.2842V165.75H50.2842ZM241.75 86.875L239.967 88.6276L239.982 88.6428L239.997 88.6578L241.75 86.875ZM241.75 159.75L243.518 161.518L243.518 161.518L241.75 159.75ZM171.625 167H169.125V169.5H171.625V167ZM171.625 79.5V77H169.125V79.5H171.625ZM194.125 97V94.5H191.625V97H194.125ZM194.125 149.5H191.625V152H194.125V149.5ZM220.375 82C229.373 82 235.755 84.3429 239.967 88.6276L243.533 85.1224C238.078 79.5738 230.21 77 220.375 77V82ZM239.997 88.6578C244.282 92.8699 246.625 99.2519 246.625 108.25H251.625C251.625 98.4147 249.051 90.5468 243.503 85.0922L239.997 88.6578ZM246.625 108.25V138.25H251.625V108.25H246.625ZM246.625 138.25C246.625 147.245 244.283 153.681 239.982 157.982L243.518 161.518C249.05 155.985 251.625 148.088 251.625 138.25H246.625ZM239.982 157.982C235.772 162.193 229.384 164.5 220.375 164.5V169.5C230.199 169.5 238.061 166.974 243.518 161.518L239.982 157.982ZM220.375 164.5H171.625V169.5H220.375V164.5ZM174.125 167V79.5H169.125V167H174.125ZM171.625 82H220.375V77H171.625V82ZM229.125 108.25C229.125 104.115 228.089 100.554 225.58 98.0447C223.071 95.5355 219.51 94.5 215.375 94.5V99.5C218.74 99.5 220.804 100.339 222.045 101.58C223.286 102.821 224.125 104.885 224.125 108.25H229.125ZM215.375 94.5H194.125V99.5H215.375V94.5ZM191.625 97V149.5H196.625V97H191.625ZM194.125 152H215.375V147H194.125V152ZM215.375 152C219.51 152 223.071 150.964 225.58 148.455C228.089 145.946 229.125 142.385 229.125 138.25H224.125C224.125 141.615 223.286 143.679 222.045 144.92C220.804 146.161 218.74 147 215.375 147V152ZM229.125 138.25V108.25H224.125V138.25H229.125Z" fill="white"/>
</g>
</g>
<defs>
<filter id="filter0_bd" x="24.1592" y="61" width="247.466" height="133.75" filterUnits="userSpaceOnUse" color-interpolation-filters="sRGB">
<feFlood flood-opacity="0" result="BackgroundImageFix"/>
<feGaussianBlur in="BackgroundImage" stdDeviation="2"/>
<feComposite in2="SourceAlpha" operator="in" result="effect1_backgroundBlur"/>
<feColorMatrix in="SourceAlpha" type="matrix" values="0 0 0 0 0 0 0 0 0 0 0 0 0 0 0 0 0 0 127 0"/>
<feOffset dy="4"/>
<feGaussianBlur stdDeviation="10"/>
<feColorMatrix type="matrix" values="0 0 0 0 0 0 0 0 0 0 0 0 0 0 0 0 0 0 0.25 0"/>
<feBlend mode="normal" in2="effect1_backgroundBlur" result="effect2_dropShadow"/>
<feBlend mode="normal" in="SourceGraphic" in2="effect2_dropShadow" result="shape"/>
</filter>
</defs>
</svg>
